<svg width="553" height="640" viewBox="0 0 553 640" fill="none" xmlns="http://www.w3.org/2000/svg">
<path d="M169.848 118.504C199.828 171.156 230.911 225.112 277.69 225.678C324.468 226.243 356.76 173.054 388.005 121.142" stroke="#FF592C" stroke-width="34.3985" stroke-miterlimit="10"/>
<path d="M54.4094 317.587C55.6915 211.561 -18.3013 43.3914 58.002 20.4913C106.339 5.93939 137.49 61.3576 169.828 118.166" stroke="#77A7BF" stroke-width="34.3985" stroke-miterlimit="10"/>
<path d="M498.568 322.958C499.85 216.932 577.974 50.6022 502.16 25.8627C454.189 10.1462 421.707 64.7949 388.005 120.805" stroke="#77A7BF" stroke-width="34.3985" stroke-miterlimit="10"/>
<path d="M383.148 522.621C353.168 469.969 322.085 416.099 275.393 415.535C228.7 414.97 196.236 468.071 164.992 519.983" stroke="#FF592C" stroke-width="34.3985" stroke-miterlimit="10"/>
<path d="M498.551 322.934C497.268 428.96 571.348 597.044 494.958 620.029C446.621 634.581 415.47 579.163 383.133 522.268" stroke="#77A7BF" stroke-width="34.3985" stroke-miterlimit="10"/>
<path fill-rule="evenodd" clip-rule="evenodd" d="M278.926 115.769C165.802 114.401 72.9888 204.997 71.6209 318.121C70.253 431.244 160.848 524.058 273.972 525.426C387.095 526.794 479.91 436.198 481.278 323.074C482.645 209.951 392.049 117.137 278.926 115.769ZM37.2249 317.705C38.8225 185.585 147.222 79.7757 279.342 81.3733C411.461 82.971 517.271 191.37 515.674 323.49C514.076 455.61 405.676 561.419 273.556 559.822C141.436 558.224 35.6272 449.825 37.2249 317.705Z" fill="#F8F8F8"/>
<path d="M54.4077 317.578C53.1256 423.604 -24.911 589.849 50.8151 614.674C98.7865 630.39 131.268 575.741 164.972 519.645" stroke="#77A7BF" stroke-width="34.3985" stroke-miterlimit="10"/>
<path d="M178.995 530.134L179.698 528.853C183.997 521.767 188.471 514.597 192.685 507.509C182.112 502.803 171.939 497.244 162.269 490.887C158.059 497.63 153.503 504.541 149.896 511.206L149.108 512.4C147.527 515.133 145.948 517.694 144.369 520.255C153.963 526.612 164.013 532.253 174.438 537.131L178.995 530.134Z" fill="#B9EDEA"/>
<path d="M154.948 127.014C158.821 133.855 162.78 140.783 166.824 147.712C176.495 141.511 186.688 136.166 197.289 131.74C193.076 124.551 188.864 117.276 184.824 110.003L184.151 108.791L180.109 101.689C169.584 106.378 159.403 111.801 149.64 117.919L154.189 125.801L154.948 127.014Z" fill="#B9EDEA"/>
<path d="M402.675 130.008L403.464 128.813L408.201 121.044C398.619 114.693 388.6 109.025 378.22 104.083C376.815 106.474 375.325 108.779 374.007 111.085L373.219 112.279C368.918 119.451 364.445 126.622 360.231 133.709C370.723 138.39 380.785 143.98 390.302 150.413C394.513 143.584 398.723 136.754 402.675 130.008Z" fill="#B9EDEA"/>
<path d="M37.2513 317.359C36.816 351.677 43.8286 385.681 57.805 417.027C65.53 384.452 70.1645 351.221 71.6474 317.775V317.775C70.9737 284.304 67.1441 250.97 60.2091 218.218C45.5658 249.247 37.7375 283.052 37.2513 317.359V317.359Z" fill="#B9EDEA"/>
</svg>
